<svg width="132" height="44" viewBox="0 0 132 44" fill="none" xmlns="http://www.w3.org/2000/svg">
<g clip-path="url(#clip0_1_415)">
<path d="M87.886 43.4078C86.149 43.4078 84.7869 42.9933 83.7999 42.1642C82.8524 41.3351 82.3786 40.052 82.3786 38.315V3.07952H90.3732V37.0714H96.532V43.4078H87.886ZM77.4042 17.8843V11.844H96.2951V17.8843H77.4042Z" fill="#2626FF"/>
<path d="M60.7208 43.9999C57.7599 43.9999 55.2924 43.5853 53.3184 42.7563C51.3445 41.8878 49.8245 40.7034 48.7586 39.2031C47.6926 37.7029 47.0609 35.9856 46.8635 34.051H54.7397C54.8186 35.1565 55.095 36.0645 55.5688 36.7751C56.082 37.4857 56.7728 38.0187 57.6414 38.374C58.51 38.7293 59.5561 38.907 60.7801 38.907C62.5962 38.907 63.9384 38.5715 64.807 37.9003C65.6756 37.2292 66.1098 36.3212 66.1098 35.1762C66.1098 33.9524 65.6756 33.0246 64.807 32.3929C63.9779 31.7613 62.7343 31.2085 61.0761 30.7348L56.6939 29.7873C54.562 29.2346 52.8447 28.5436 51.5419 27.7146C50.239 26.8855 49.2718 25.8986 48.6401 24.7536C48.0479 23.6088 47.7518 22.2863 47.7518 20.7859C47.7518 18.7331 48.3045 17.0157 49.41 15.6339C50.5154 14.2127 52.0156 13.1467 53.9106 12.4361C55.8452 11.686 58.0164 11.3109 60.4247 11.3109C63.0304 11.3109 65.2807 11.686 67.1757 12.4361C69.1103 13.1467 70.6301 14.2127 71.7356 15.6339C72.8411 17.0551 73.4925 18.7528 73.6898 20.7267H66.1098C66.0703 19.6608 65.794 18.812 65.2807 18.1803C64.807 17.5092 64.1555 17.0157 63.3265 16.6998C62.5369 16.384 61.6091 16.2261 60.5432 16.2261C59.4772 16.2261 58.5693 16.384 57.8191 16.6998C57.1085 16.9762 56.5558 17.3711 56.161 17.8842C55.8056 18.3975 55.628 19.0292 55.628 19.7792C55.628 20.8452 56.003 21.6941 56.7531 22.3256C57.5427 22.9178 58.7666 23.4508 60.4247 23.9246L64.5701 24.7536C66.4651 25.2274 68.1429 25.8591 69.6037 26.6486C71.0645 27.3988 72.1897 28.4055 72.9792 29.6688C73.8083 30.8927 74.2228 32.472 74.2228 34.4063C74.2228 36.4989 73.6503 38.2556 72.5055 39.6769C71.3606 41.0981 69.7617 42.1839 67.7087 42.9339C65.6952 43.6445 63.366 43.9999 60.7208 43.9999Z" fill="#2626FF"/>
<path d="M33.3639 43.4077V11.8438H41.2993V43.4077H33.3639ZM33.3639 7.58006V0H41.3585V7.58006H33.3639Z" fill="#2626FF"/>
<path d="M0 43.408V0.237108H8.23147V36.657H27.3593V43.408H0Z" fill="#2626FF"/>
<path d="M116.445 11.4295C118.81 11.4295 120.938 11.7645 122.829 12.4344C124.721 13.065 126.317 14.0107 127.617 15.2717C127.814 15.4509 128.003 15.6362 128.186 15.8272L116.548 27.3328L111.444 22.2291L106.438 27.2355L116.542 37.3398L131.466 22.4158C131.658 23.4381 131.755 24.5246 131.755 25.6754V29.695C131.755 32.6506 131.125 35.1923 129.864 37.3204C128.642 39.4484 126.888 41.1036 124.603 42.2858C122.317 43.4285 119.598 44 116.445 44C114.081 44 111.953 43.6847 110.061 43.0541C108.169 42.3842 106.554 41.4385 105.214 40.2168C103.914 38.9559 102.909 37.4385 102.199 35.6652C101.49 33.8919 101.135 31.9018 101.135 29.695V25.6754C101.135 22.7591 101.746 20.2371 102.968 18.1091C104.189 15.981 105.943 14.3457 108.229 13.2029C110.554 12.0206 113.293 11.4295 116.445 11.4295Z" fill="#2626FF"/>
</g>
<defs>
<clipPath id="clip0_1_415">
<rect width="131.755" height="44" fill="white"/>
</clipPath>
</defs>
</svg>
