<svg width="890" height="298" viewBox="0 0 890 298" fill="none" xmlns="http://www.w3.org/2000/svg">
<path d="M593.632 293.201C581.899 293.201 572.699 290.401 566.032 284.801C559.632 279.201 556.432 270.534 556.432 258.801V20.8008H610.432V250.401H652.032V293.201H593.632ZM522.832 120.801V80.0008H650.432V120.801H522.832Z" fill="#FAFAFA"/>
<path d="M410.143 297.2C390.143 297.2 373.476 294.4 360.143 288.8C346.81 282.934 336.543 274.934 329.343 264.8C322.143 254.667 317.876 243.067 316.543 230H369.743C370.276 237.467 372.143 243.6 375.343 248.4C378.81 253.2 383.476 256.8 389.343 259.2C395.21 261.6 402.276 262.8 410.543 262.8C422.81 262.8 431.876 260.534 437.743 256C443.61 251.467 446.543 245.334 446.543 237.6C446.543 229.334 443.61 223.067 437.743 218.8C432.143 214.534 423.743 210.8 412.543 207.6L382.943 201.2C368.543 197.467 356.943 192.8 348.143 187.2C339.343 181.6 332.81 174.934 328.543 167.2C324.543 159.467 322.543 150.534 322.543 140.4C322.543 126.534 326.276 114.934 333.743 105.6C341.21 96.0004 351.343 88.8004 364.143 84.0004C377.21 78.9337 391.876 76.4004 408.143 76.4004C425.743 76.4004 440.943 78.9337 453.743 84.0004C466.81 88.8004 477.076 96.0004 484.543 105.6C492.01 115.2 496.41 126.667 497.743 140H446.543C446.276 132.8 444.41 127.067 440.943 122.8C437.743 118.267 433.343 114.934 427.743 112.8C422.41 110.667 416.143 109.6 408.943 109.6C401.743 109.6 395.61 110.667 390.543 112.8C385.743 114.667 382.01 117.334 379.343 120.8C376.943 124.267 375.743 128.534 375.743 133.6C375.743 140.8 378.276 146.534 383.343 150.8C388.676 154.8 396.943 158.4 408.143 161.6L436.143 167.2C448.943 170.4 460.276 174.667 470.143 180C480.01 185.067 487.61 191.867 492.943 200.4C498.543 208.667 501.343 219.334 501.343 232.4C501.343 246.534 497.476 258.4 489.743 268C482.01 277.6 471.21 284.934 457.343 290C443.743 294.8 428.01 297.2 410.143 297.2Z" fill="#FAFAFA"/>
<path d="M225.359 293.2V80H278.959V293.2H225.359ZM225.359 51.2V0H279.359V51.2H225.359Z" fill="#FAFAFA"/>
<path d="M0 293.202V1.60156H55.6V247.602H184.8V293.202H0Z" fill="#FAFAFA"/>
<path d="M786.537 77.2012C802.508 77.2012 816.882 79.4642 829.658 83.9893C842.435 88.2482 853.216 94.6365 862 103.154C863.327 104.364 864.607 105.616 865.843 106.906L787.23 184.621L752.759 150.148L718.941 183.964L787.189 252.214L887.993 151.409C889.296 158.314 889.949 165.653 889.949 173.426V200.577C889.949 220.541 885.69 237.709 877.172 252.083C868.92 266.457 857.075 277.637 841.637 285.622C826.198 293.341 807.832 297.201 786.537 297.201C770.566 297.201 756.192 295.071 743.415 290.812C730.638 286.287 719.725 279.899 710.675 271.647C701.891 263.13 695.103 252.881 690.312 240.903C685.52 228.925 683.125 215.483 683.125 200.577V173.426C683.125 153.728 687.251 136.693 695.503 122.319C703.755 107.945 715.599 96.899 731.038 89.1797C746.743 81.1942 765.242 77.2012 786.537 77.2012Z" fill="#FAFAFA"/>
</svg>
